<svg width="268" height="80" viewBox="0 0 268 80" fill="none" xmlns="http://www.w3.org/2000/svg">
<path d="M70.911 1.50494C68.8186 3.19334 67.3114 4.93737 66.4895 7.1932C66.1496 8.1278 65.3333 7.63268 64.7538 7.63547C59.3906 7.65215 55.1363 10.6813 53.5621 15.663C51.6648 21.6711 55.3341 28.1939 61.5136 29.8016C67.7042 31.4121 74.1094 27.5124 75.4188 21.368C75.8089 19.5377 75.8395 17.7241 75.2712 15.9495C74.9842 15.0538 75.2071 14.8035 76.1014 14.6756C77.7703 14.4336 79.3472 13.8327 80.6093 12.6868C81.6345 11.7549 82.0357 12.0887 82.3589 13.2458C84.0946 19.4709 83.1223 25.2844 79.3583 30.4775C74.7418 36.8472 69.8941 43.0501 65.1717 49.3447C64.5476 50.1764 64.152 50.118 63.5585 49.3253C58.8668 43.0723 54.0107 36.9335 49.4722 30.5721C43.5824 22.3137 44.2957 12.3112 51.194 5.51871C55.8049 0.984793 61.4551 -0.69526 67.863 0.478552C68.8214 0.653789 69.7297 1.09884 70.911 1.50494Z" fill="#EE7505"/>
<path d="M64.3108 10.3808C59.5299 10.4003 55.7827 14.1832 55.7994 18.9702C55.8189 23.7322 59.5912 27.4233 64.4306 27.4122C69.2617 27.3983 72.917 23.7155 72.9309 18.8478C72.942 14.1025 69.1279 10.3613 64.3108 10.3808ZM60.8589 18.3054C59.6246 18.3499 58.4963 17.3208 58.4099 16.0746C58.3152 14.7534 59.36 13.5935 60.6945 13.5379C61.9649 13.485 63.0515 14.4725 63.1239 15.7464C63.1964 17.1094 62.1823 18.2554 60.8589 18.3054Z" fill="#EE7505"/>
<path d="M83.9807 0C83.5516 3.38792 82.5626 6.14999 80.8185 8.63948C78.0269 12.6199 73.9035 12.6477 69.9556 11.396C69.2814 11.1818 69.7718 10.9621 69.8247 10.7674C69.9556 10.2611 70.3541 9.94402 70.7357 9.62136C72.5105 8.07204 74.4774 6.82869 76.6227 5.83568C74.0762 6.19172 71.7749 7.02896 70.0448 9.03168C69.6436 9.37937 69.2452 9.7215 68.8301 10.0748C68.9471 6.53107 70.9085 4.14172 74.3883 3.44355C75.8482 3.15427 77.3499 3.04301 78.8376 2.9095C80.8547 2.73148 82.635 2.12788 83.9807 0Z" fill="#006837"/>
<path d="M7.90422 49.9702H0.950195V11.6794H7.90422V49.9702ZM41.0974 49.9702H31.2292L15.5826 34.3212H10.6875V27.3256H15.5826L31.2292 11.6766H41.0974L21.386 30.822L41.0974 49.9702Z" fill="#EE7505"/>
<path d="M127.332 24.5496C127.332 26.1351 127.134 27.5509 126.744 28.7943C126.351 30.0404 125.822 31.1391 125.153 32.0932C124.484 33.0445 123.713 33.8595 122.84 34.5354C121.966 35.2113 121.052 35.7676 120.099 36.2043C119.146 36.641 118.182 36.9553 117.21 37.1528C116.237 37.3503 115.324 37.4476 114.468 37.4476L128.992 49.9702H118.241L103.745 37.4476H98.7438V30.5049H114.471C115.343 30.4326 116.143 30.2518 116.864 29.9569C117.586 29.6621 118.21 29.2671 118.737 28.7692C119.263 28.2713 119.667 27.6705 119.954 26.9668C120.238 26.2631 120.383 25.4592 120.383 24.5496V20.1687C120.383 19.7765 120.333 19.4789 120.235 19.273C120.138 19.07 120.013 18.917 119.862 18.8196C119.712 18.7223 119.55 18.6639 119.38 18.6472C119.21 18.6305 119.054 18.6194 118.912 18.6194H95.9633V49.9674H89.0093V15.1758C89.0093 14.6946 89.0984 14.2412 89.2767 13.8129C89.455 13.3845 89.7002 13.0118 90.0123 12.6919C90.3243 12.372 90.6948 12.1217 91.1211 11.9437C91.5502 11.7656 92.0126 11.6766 92.5114 11.6766H118.909C120.461 11.6766 121.771 11.9576 122.84 12.5167C123.91 13.0758 124.78 13.7795 125.448 14.6251C126.117 15.4707 126.599 16.383 126.891 17.3621C127.187 18.3412 127.332 19.2591 127.332 20.1131V24.5496Z" fill="#EE7505"/>
<path d="M171.714 49.9702H146.625C145.661 49.9702 144.611 49.8005 143.468 49.4639C142.326 49.1274 141.27 48.5683 140.298 47.795C139.326 47.0217 138.515 46.0148 137.863 44.777C137.211 43.5392 136.888 42.0233 136.888 40.2236V15.1758C136.888 14.6946 136.977 14.2412 137.155 13.8129C137.333 13.3845 137.579 13.0118 137.891 12.6919C138.203 12.372 138.573 12.1217 139 11.9437C139.429 11.7656 139.891 11.6766 140.39 11.6766H171.711V18.6194H143.844V40.2208C143.844 41.1276 144.084 41.823 144.566 42.3042C145.048 42.7854 145.753 43.0246 146.678 43.0246H171.714V49.9702ZM168.585 34.3212H146.625V27.3256H168.585V34.3212Z" fill="#EE7505"/>
<path d="M218.798 49.9704H211.844V40.5716H187.399V49.9704H180.445V30.8251C180.445 28.0296 180.927 25.4567 181.888 23.109C182.852 20.7586 184.19 18.7392 185.9 17.0481C187.611 15.3569 189.637 14.0412 191.971 13.0955C194.306 12.1525 196.858 11.6797 199.622 11.6797H215.296C215.778 11.6797 216.232 11.7687 216.661 11.9467C217.09 12.1247 217.464 12.3751 217.784 12.695C218.105 13.0148 218.355 13.3903 218.534 13.8159C218.712 14.2443 218.801 14.6977 218.801 15.1789V49.9704H218.798ZM187.399 33.6288H211.844V18.6224H199.622C199.407 18.6224 198.956 18.653 198.271 18.717C197.585 18.781 196.791 18.934 195.891 19.1843C194.991 19.4346 194.041 19.8157 193.044 20.3331C192.046 20.8504 191.127 21.5625 190.288 22.4693C189.45 23.3761 188.759 24.5109 188.216 25.8739C187.672 27.2369 187.399 28.8863 187.399 30.8278V33.6288Z" fill="#EE7505"/>
<path d="M267.942 47.0052C267.942 47.5031 267.847 47.9676 267.66 48.3932C267.473 48.8215 267.223 49.1915 266.911 49.5002C266.599 49.8117 266.228 50.0565 265.802 50.2345C265.373 50.4126 264.919 50.5016 264.437 50.5016C264.008 50.5016 263.576 50.4209 263.138 50.2623C262.701 50.101 262.314 49.8451 261.974 49.4891L236.565 23.0004V49.9703H229.611V14.6419C229.611 13.9298 229.811 13.2845 230.213 12.7059C230.614 12.1274 231.126 11.6962 231.751 11.4097C232.411 11.1427 233.088 11.0759 233.784 11.2095C234.481 11.343 235.077 11.6684 235.576 12.183L260.985 38.6466V11.6795H267.939V47.0052H267.942Z" fill="#EE7505"/>
<path d="M1.36796 63.9865C2.279 62.3732 3.52437 61.1132 5.0985 60.2036C6.67263 59.2941 8.42228 58.8379 10.3447 58.8379C12.6042 58.8379 14.5767 59.3831 16.2595 60.4707C17.9423 61.5582 19.1737 63.102 19.9454 65.0991H16.7052C16.1313 63.853 15.3039 62.8934 14.2229 62.2202C13.1419 61.5471 11.8491 61.2105 10.3447 61.2105C8.89869 61.2105 7.60039 61.5471 6.44974 62.2202C5.2991 62.8934 4.3992 63.8475 3.74447 65.0852C3.08975 66.323 2.76378 67.7722 2.76378 69.4328C2.76378 71.0767 3.08975 72.5147 3.74447 73.7498C4.3992 74.9875 5.2991 75.9416 6.44974 76.6147C7.5976 77.2879 8.89591 77.6244 10.3447 77.6244C11.8491 77.6244 13.1447 77.2934 14.2229 76.6314C15.3039 75.9694 16.1285 75.0154 16.7052 73.7692H19.9454C19.1737 75.7469 17.9423 77.2768 16.2595 78.3532C14.5739 79.4324 12.6042 79.9721 10.3447 79.9721C8.42228 79.9721 6.67263 79.5215 5.0985 78.6202C3.52437 77.719 2.279 76.4701 1.36796 74.8651C0.456915 73.263 0 71.4522 0 69.4328C0 67.4162 0.456915 65.5998 1.36796 63.9865Z" fill="#EE7505"/>
<path d="M34.6895 78.6481C33.1042 77.7469 31.8505 76.4924 30.9283 74.8791C30.0061 73.2658 29.5464 71.4522 29.5464 69.4328C29.5464 67.4162 30.0061 65.5999 30.9283 63.9866C31.8505 62.3733 33.1042 61.1188 34.6895 60.2176C36.2747 59.3164 38.0272 58.8685 39.9496 58.8685C41.8914 58.8685 43.655 59.3191 45.2403 60.2176C46.8256 61.1188 48.0737 62.3705 48.9848 63.9727C49.8958 65.5748 50.3527 67.3967 50.3527 69.4328C50.3527 71.4717 49.8958 73.2908 48.9848 74.893C48.0737 76.4952 46.8256 77.7469 45.2403 78.6481C43.655 79.5493 41.8914 79.9971 39.9496 79.9971C38.0272 79.9999 36.2747 79.5493 34.6895 78.6481ZM43.8584 76.6454C45.0174 75.9722 45.9285 75.0126 46.5943 73.7665C47.2574 72.5204 47.5889 71.0767 47.5889 69.4328C47.5889 67.7723 47.2574 66.3231 46.5943 65.0853C45.9312 63.8503 45.023 62.8934 43.8751 62.2203C42.7245 61.5472 41.4178 61.2106 39.9523 61.2106C38.4869 61.2106 37.1774 61.5472 36.0296 62.2203C34.8789 62.8934 33.9734 63.8475 33.3104 65.0853C32.6473 66.3231 32.3157 67.7723 32.3157 69.4328C32.3157 71.0767 32.6473 72.5204 33.3104 73.7665C33.9734 75.0126 34.8845 75.9722 36.0463 76.6454C37.2053 77.3185 38.5092 77.6551 39.9551 77.6551C41.3983 77.6551 42.6994 77.3185 43.8584 76.6454Z" fill="#EE7505"/>
<path d="M76.8092 79.7911H74.1039L63.2243 63.3215V79.7911H60.519V59.0769H63.2243L74.1039 75.5186V59.0769H76.8092V79.7911Z" fill="#EE7505"/>
<path d="M105.138 59.1049L97.3199 79.7912H94.1995L86.3818 59.1049H89.2654L95.7764 76.9401L102.287 59.1049H105.138Z" fill="#EE7505"/>
<path d="M117.413 61.3021V68.2171H124.964V70.4423H117.413V77.5658H125.855V79.7911H114.708V59.0769H125.855V61.3021H117.413Z" fill="#EE7505"/>
<path d="M152.846 79.7911H150.141L139.261 63.3215V79.7911H136.556V59.0769H139.261L150.141 75.5186V59.0769H152.846V79.7911Z" fill="#EE7505"/>
<path d="M166.757 59.1049V79.7912H164.052V59.1049H166.757Z" fill="#EE7505"/>
<path d="M180.668 61.3021V68.2171H188.218V70.4423H180.668V77.5658H189.11V79.7911H177.963V59.0769H189.11V61.3021H180.668Z" fill="#EE7505"/>
<path d="M216.101 79.7911H213.396L202.516 63.3215V79.7911H199.811V59.0769H202.516L213.396 75.5186V59.0769H216.101V79.7911Z" fill="#EE7505"/>
<path d="M227.663 63.9865C228.574 62.3732 229.817 61.1132 231.394 60.2036C232.968 59.2941 234.718 58.8379 236.64 58.8379C238.9 58.8379 240.872 59.3831 242.555 60.4707C244.238 61.5582 245.469 63.102 246.241 65.0991H243.001C242.427 63.853 241.599 62.8934 240.518 62.2202C239.437 61.5471 238.145 61.2105 236.64 61.2105C235.194 61.2105 233.896 61.5471 232.745 62.2202C231.595 62.8934 230.695 63.8475 230.04 65.0852C229.385 66.323 229.059 67.7722 229.059 69.4328C229.059 71.0767 229.385 72.5147 230.04 73.7498C230.695 74.9875 231.595 75.9416 232.745 76.6147C233.893 77.2879 235.191 77.6244 236.64 77.6244C238.147 77.6244 239.44 77.2934 240.518 76.6314C241.599 75.9694 242.424 75.0154 243.001 73.7692H246.241C245.469 75.7469 244.24 77.2768 242.555 78.3532C240.869 79.4324 238.9 79.9721 236.64 79.9721C234.718 79.9721 232.968 79.5215 231.394 78.6202C229.817 77.719 228.574 76.4701 227.663 74.8651C226.752 73.263 226.295 71.4522 226.295 69.4328C226.295 67.4162 226.752 65.5998 227.663 63.9865Z" fill="#EE7505"/>
<path d="M259.558 61.3021V68.2171H267.108V70.4423H259.558V77.5658H268V79.7911H256.853V59.0769H268V61.3021H259.558Z" fill="#EE7505"/>
</svg>
